<svg xmlns="http://www.w3.org/2000/svg" viewBox="0 0 64 64">
  <defs>
    <radialGradient id="sun" cx="35%" cy="30%" r="75%">
      <stop offset="0%" stop-color="#ff6b6b"/>
      <stop offset="58%" stop-color="#dc2626"/>
      <stop offset="100%" stop-color="#991b1b"/>
    </radialGradient>
    <linearGradient id="blade" x1="0%" y1="0%" x2="100%" y2="100%">
      <stop offset="0%" stop-color="#f8fafc"/>
      <stop offset="100%" stop-color="#cbd5e1"/>
    </linearGradient>
  </defs>

  <circle cx="32" cy="32" r="29" fill="url(#sun)"/>
  <circle cx="32" cy="32" r="29" fill="none" stroke="#7f1d1d" stroke-width="2"/>

  <g transform="rotate(-37 32 32)">
    <rect x="15" y="31" width="34" height="3.2" rx="1.6" fill="url(#blade)"/>
    <rect x="48.5" y="31" width="6" height="3.2" rx="1.2" fill="#e2e8f0"/>
    <rect x="11.8" y="30.2" width="3.6" height="4.8" rx="1" fill="#111827"/>
    <rect x="8.2" y="30.5" width="4.4" height="4.2" rx="1" fill="#1f2937"/>
    <path d="M8.9 31.1h3v2.9h-3z" fill="#b91c1c"/>
  </g>

  <path d="M22 44c2.9-3.8 7.4-5.9 12.1-5.9 4.6 0 8.9 2 11.8 5.6" fill="none" stroke="#111827" stroke-width="2.7" stroke-linecap="round"/>
  <path d="M26 41.8c2.2-2.1 5.1-3.3 8.1-3.3 3.1 0 6 .9 8.3 3.1" fill="none" stroke="#f8fafc" stroke-opacity=".85" stroke-width="1.2" stroke-linecap="round"/>
  <circle cx="22.5" cy="29.5" r="2.1" fill="#111827"/>
  <circle cx="41.8" cy="29.5" r="2.1" fill="#111827"/>
  <path d="M20.2 25.7c1.7-2.3 4.4-3.8 7.4-3.8h8.3c2.9 0 5.6 1.4 7.2 3.6" fill="none" stroke="#111827" stroke-width="2" stroke-linecap="round"/>
</svg>
